<svg xmlns="http://www.w3.org/2000/svg" id="Group_88463" width="8.482" height="11.282" viewBox="0 0 8.482 11.282">
    <defs>
        <style>
            .cls-1{fill:#1778f2}
        </style>
    </defs>
    <path id="Path_179681" d="M343.775 267.484a11.056 11.056 0 0 1-.824-1.3 7.837 7.837 0 0 1-.824-2 4.8 4.8 0 0 1 .033-2.79 4.473 4.473 0 0 1 1.757-2.251 4.4 4.4 0 0 1 2.526-.692 4.317 4.317 0 0 1 2.526 1.054 4.365 4.365 0 0 1 1.384 2.636 5.356 5.356 0 0 1-.055 1.933 7.257 7.257 0 0 1-.933 2.142 11.992 11.992 0 0 1-.857 1.329c-1.051 1.407-1.636 2.192-2.378 2.185-.715-.004-1.262-.752-2.355-2.246z" class="cls-1" transform="translate(-341.933 -258.451)"/>
    <circle id="Ellipse_13835" cx="2.959" cy="2.959" r="2.959" fill="#fff" transform="translate(1.307 1.201)"/>
    <path id="Path_185071" d="M1.031 0A1.031 1.031 0 1 1 0 1.031 1.031 1.031 0 0 1 1.031 0z" class="cls-1" transform="translate(3.313 3.061)"/>
</svg>
